<svg viewBox="0 0 600 300" xmlns="http://www.w3.org/2000/svg">
  <defs>
    <linearGradient id="bg2" x1="0%" y1="0%" x2="100%" y2="100%">
      <stop offset="0%" stop-color="#202022"/>
      <stop offset="100%" stop-color="#121212"/>
    </linearGradient>
    <radialGradient id="glow2" cx="85%" cy="15%" r="60%">
      <stop offset="0%" stop-color="#ffdb70" stop-opacity="0.16"/>
      <stop offset="100%" stop-color="#ffdb70" stop-opacity="0"/>
    </radialGradient>
  </defs>
  <rect width="600" height="300" fill="url(#bg2)"/>
  <rect width="600" height="300" fill="url(#glow2)"/>
  <rect x="1" y="1" width="598" height="298" fill="none" stroke="#383838" stroke-width="1"/>
  <path d="M24 24 L24 48 M24 24 L48 24" stroke="#ceb15a" stroke-width="2" fill="none" opacity="0.8"/>
  <path d="M576 276 L576 252 M576 276 L552 276" stroke="#ceb15a" stroke-width="2" fill="none" opacity="0.8"/>
  
  <g transform="translate(430,50)" opacity="0.9">
    <rect x="0" y="40" width="12" height="30" fill="#ffdb70" opacity="0.5"/>
    <rect x="18" y="20" width="12" height="50" fill="#ffdb70" opacity="0.75"/>
    <rect x="36" y="0" width="12" height="70" fill="#ffdb70"/>
    <rect x="54" y="28" width="12" height="42" fill="#ffdb70" opacity="0.6"/>
  </g>
  <text x="24" y="190" font-family="Poppins, Segoe UI, Arial, sans-serif" font-size="27" font-weight="600" fill="#ffffff">Cafe POS — Admin</text>
  
    <rect x="24" y="252" width="63" height="26" rx="13" fill="none" stroke="#ceb15a" stroke-width="1" opacity="0.55"/>
    <text x="55.5" y="269" font-family="Poppins, Segoe UI, Arial, sans-serif" font-size="12" fill="#d6d6d6" text-anchor="middle">Next.js</text>
    <rect x="97" y="252" width="35" height="26" rx="13" fill="none" stroke="#ceb15a" stroke-width="1" opacity="0.55"/>
    <text x="114.5" y="269" font-family="Poppins, Segoe UI, Arial, sans-serif" font-size="12" fill="#d6d6d6" text-anchor="middle">PWA</text>
    <rect x="142" y="252" width="70" height="26" rx="13" fill="none" stroke="#ceb15a" stroke-width="1" opacity="0.55"/>
    <text x="177.0" y="269" font-family="Poppins, Segoe UI, Arial, sans-serif" font-size="12" fill="#d6d6d6" text-anchor="middle">Supabase</text>
</svg>